{
    "asset" : {
        "generator" : "Khronos glTF Blender I/O v1.7.33",
        "version" : "2.0"
    },
    "scene" : 0,
    "scenes" : [
        {
            "name" : "Scene",
            "nodes" : [
                0
            ]
        }
    ],
    "nodes" : [
        {
            "mesh" : 0,
            "name" : "Cube.001",
            "scale" : [
                0.27074217796325684,
                0.27074217796325684,
                0.27074217796325684
            ]
        }
    ],
    "materials" : [
        {
            "doubleSided" : true,
            "name" : "Malzeme.007",
            "pbrMetallicRoughness" : {
                "baseColorFactor" : [
                    1,
                    0.6989962458610535,
                    0.045028336346149445,
                    1
                ],
                "metallicFactor" : 0,
                "roughnessFactor" : 0.5
            }
        },
        {
            "doubleSided" : true,
            "name" : "Malzeme.008",
            "pbrMetallicRoughness" : {
                "baseColorFactor" : [
                    0.11068929731845856,
                    0.020938456058502197,
                    0.012930422089993954,
                    1
                ],
                "metallicFactor" : 0,
                "roughnessFactor" : 0.5
            }
        }
    ],
    "meshes" : [
        {
            "name" : "Cube.007",
            "primitives" : [
                {
                    "attributes" : {
                        "POSITION" : 0,
                        "NORMAL" : 1,
                        "TEXCOORD_0" : 2
                    },
                    "indices" : 3,
                    "material" : 0
                },
                {
                    "attributes" : {
                        "POSITION" : 4,
                        "NORMAL" : 5,
                        "TEXCOORD_0" : 6
                    },
                    "indices" : 7,
                    "material" : 1
                }
            ]
        }
    ],
    "accessors" : [
        {
            "bufferView" : 0,
            "componentType" : 5126,
            "count" : 103,
            "max" : [
                4.1997551918029785,
                14.811629295349121,
                3.801955461502075
            ],
            "min" : [
                -3.7547194957733154,
                -0.7605342268943787,
                -4.130388259887695
            ],
            "type" : "VEC3"
        },
        {
            "bufferView" : 1,
            "componentType" : 5126,
            "count" : 103,
            "type" : "VEC3"
        },
        {
            "bufferView" : 2,
            "componentType" : 5126,
            "count" : 103,
            "type" : "VEC2"
        },
        {
            "bufferView" : 3,
            "componentType" : 5123,
            "count" : 180,
            "type" : "SCALAR"
        },
        {
            "bufferView" : 4,
            "componentType" : 5126,
            "count" : 26,
            "max" : [
                1.231670618057251,
                1.7535059452056885,
                0.8354303240776062
            ],
            "min" : [
                -0.7786877155303955,
                -0.7605342268943787,
                -1.16856849193573
            ],
            "type" : "VEC3"
        },
        {
            "bufferView" : 5,
            "componentType" : 5126,
            "count" : 26,
            "type" : "VEC3"
        },
        {
            "bufferView" : 6,
            "componentType" : 5126,
            "count" : 26,
            "type" : "VEC2"
        },
        {
            "bufferView" : 7,
            "componentType" : 5123,
            "count" : 48,
            "type" : "SCALAR"
        }
    ],
    "bufferViews" : [
        {
            "buffer" : 0,
            "byteLength" : 1236,
            "byteOffset" : 0
        },
        {
            "buffer" : 0,
            "byteLength" : 1236,
            "byteOffset" : 1236
        },
        {
            "buffer" : 0,
            "byteLength" : 824,
            "byteOffset" : 2472
        },
        {
            "buffer" : 0,
            "byteLength" : 360,
            "byteOffset" : 3296
        },
        {
            "buffer" : 0,
            "byteLength" : 312,
            "byteOffset" : 3656
        },
        {
            "buffer" : 0,
            "byteLength" : 312,
            "byteOffset" : 3968
        },
        {
            "buffer" : 0,
            "byteLength" : 208,
            "byteOffset" : 4280
        },
        {
            "buffer" : 0,
            "byteLength" : 96,
            "byteOffset" : 4488
        }
    ],
    "buffers" : [
        {
            "byteLength" : 4584,
            "uri" : "data:application/octet-stream;base64,"
        }
    ]
}
